<svg xmlns="http://www.w3.org/2000/svg" viewBox="0 0 256 256" role="img" aria-label="AegisTalk Bot">
  <defs>
    <linearGradient id="bg" x1="0" y1="0" x2="1" y2="1">
      <stop offset="0" stop-color="#0b1220"/>
      <stop offset="1" stop-color="#1b2a44"/>
    </linearGradient>
    <linearGradient id="accent" x1="0" y1="0" x2="1" y2="1">
      <stop offset="0" stop-color="#5cc8ff"/>
      <stop offset="1" stop-color="#2a7cff"/>
    </linearGradient>
  </defs>

  <rect width="256" height="256" rx="56" fill="url(#bg)"/>

  <!-- Shield -->
  <path d="M128 44c24 18 52 24 76 26v64c0 50-34 86-76 102C86 220 52 184 52 134V70c24-2 52-8 76-26z" fill="url(#accent)" opacity="0.95"/>
  <path d="M128 64c18 12 38 17 56 18v50c0 38-24 64-56 78-32-14-56-40-56-78V82c18-1 38-6 56-18z" fill="#0b1220" opacity="0.35"/>

  <!-- Bot initials -->
  <text x="128" y="162" text-anchor="middle" font-family="system-ui, -apple-system, Segoe UI, Roboto, Arial" font-size="64" font-weight="800" fill="#eaf2ff">
    AB
  </text>
</svg>

